<svg width="32" height="36" viewBox="0 0 32 36" fill="none" xmlns="http://www.w3.org/2000/svg">
<g clip-path="url(#clip0_2_2562)">
<path d="M11.25 19.25C12.2389 19.25 13.2056 18.9568 14.0279 18.4074C14.8501 17.8579 15.491 17.0771 15.8694 16.1634C16.2478 15.2498 16.3469 14.2445 16.1539 13.2746C15.961 12.3046 15.4848 11.4137 14.7855 10.7145C14.0863 10.0152 13.1954 9.539 12.2255 9.34608C11.2555 9.15315 10.2502 9.25217 9.33658 9.6306C8.42295 10.009 7.64206 10.6499 7.09265 11.4722C6.54325 12.2944 6.25 13.2611 6.25 14.25C6.25129 15.5757 6.77849 16.8467 7.71589 17.7841C8.65329 18.7215 9.92431 19.2487 11.25 19.25ZM11.25 11.75C11.7445 11.75 12.2278 11.8966 12.6389 12.1713C13.05 12.446 13.3705 12.8365 13.5597 13.2933C13.7489 13.7501 13.7984 14.2528 13.702 14.7377C13.6055 15.2227 13.3674 15.6681 13.0178 16.0178C12.6681 16.3674 12.2227 16.6055 11.7377 16.702C11.2528 16.7984 10.7501 16.7489 10.2933 16.5597C9.83648 16.3705 9.44603 16.0501 9.17133 15.6389C8.89662 15.2278 8.75 14.7445 8.75 14.25C8.75089 13.5872 9.01457 12.9519 9.48322 12.4832C9.95187 12.0146 10.5872 11.7509 11.25 11.75Z" fill="#8D0606" fill-opacity="0.65"/>
<path d="M30.7798 23.4625C31.1924 22.9098 31.4681 22.2672 31.5842 21.5873C31.7003 20.9074 31.6535 20.2097 31.4475 19.5514L30.654 16.9696C30.2815 15.7451 29.5241 14.6733 28.4944 13.9132C27.4646 13.1531 26.2172 12.7452 24.9373 12.75H19.3284C18.9969 12.75 18.679 12.8817 18.4445 13.1161C18.2101 13.3505 18.0784 13.6685 18.0784 14C18.0784 14.3315 18.2101 14.6495 18.4445 14.8839C18.679 15.1183 18.9969 15.25 19.3284 15.25H24.9373C25.6821 15.2474 26.4079 15.485 27.007 15.9274C27.6062 16.3698 28.0469 16.9935 28.2637 17.706L29.0572 20.2866C29.1447 20.5713 29.1643 20.8725 29.1143 21.1661C29.0643 21.4597 28.9461 21.7374 28.7692 21.977C28.5923 22.2166 28.3617 22.4114 28.0958 22.5456C27.83 22.6799 27.5364 22.7499 27.2385 22.75H15.7774C15.742 22.75 15.7124 22.7671 15.6774 22.7701C15.5934 22.7669 15.5123 22.75 15.427 22.75H7.58954C6.20047 22.7449 4.84681 23.1879 3.72948 24.0132C2.61215 24.8385 1.79073 26.0021 1.38716 27.3312L0.453908 30.3625C0.235919 31.0719 0.187395 31.8225 0.312235 32.554C0.437075 33.2856 0.731799 33.9776 1.17272 34.5746C1.61364 35.1715 2.18845 35.6567 2.85095 35.9911C3.51345 36.3255 4.24517 36.4998 4.98729 36.5H18.0284C18.7706 36.4999 19.5024 36.3256 20.1649 35.9912C20.8275 35.6569 21.4024 35.1717 21.8433 34.5748C22.2843 33.9778 22.5791 33.2857 22.7039 32.5542C22.8288 31.8226 22.7803 31.0719 22.5623 30.3625L21.6297 27.3315C21.3934 26.5767 21.0215 25.8713 20.532 25.25H27.2385C27.9281 25.2532 28.6086 25.0928 29.2241 24.7821C29.8397 24.4714 30.3728 24.0192 30.7798 23.4625ZM19.8325 33.089C19.6252 33.3726 19.3536 33.6031 19.04 33.7614C18.7264 33.9198 18.3797 34.0015 18.0284 34H4.98729C4.63628 33.9999 4.29019 33.9175 3.97684 33.7594C3.66349 33.6012 3.39163 33.3717 3.18313 33.0894C2.97463 32.807 2.83531 32.4796 2.77637 32.1336C2.71743 31.7876 2.74052 31.4326 2.84379 31.0971L3.77641 28.0661C4.02418 27.2489 4.52901 26.5335 5.21588 26.0261C5.90275 25.5188 6.73499 25.2466 7.58891 25.25H15.4264C16.2803 25.2466 17.1126 25.5188 17.7994 26.0261C18.4863 26.5335 18.9911 27.2489 19.2389 28.0661L20.1715 31.0971C20.2767 31.4323 20.3008 31.7877 20.2419 32.134C20.1829 32.4804 20.0427 32.8074 19.8325 33.089Z" fill="#8D0606" fill-opacity="0.65"/>
<path d="M21.875 9.24999C22.7403 9.24999 23.5861 8.9934 24.3056 8.51267C25.0251 8.03194 25.5858 7.34866 25.917 6.54923C26.2481 5.74981 26.3347 4.87014 26.1659 4.02148C25.9971 3.17281 25.5804 2.39326 24.9686 1.78141C24.3567 1.16955 23.5772 0.752876 22.7285 0.584066C21.8798 0.415256 21.0002 0.501896 20.2008 0.833029C19.4013 1.16416 18.7181 1.72492 18.2373 2.44438C17.7566 3.16384 17.5 4.0097 17.5 4.875C17.5014 6.03489 17.9628 7.14688 18.7829 7.96705C19.6031 8.78722 20.7151 9.2486 21.875 9.24999ZM21.875 3C22.2458 3 22.6083 3.10997 22.9167 3.31599C23.225 3.52202 23.4654 3.81485 23.6073 4.15747C23.7492 4.50008 23.7863 4.87708 23.714 5.24079C23.6416 5.6045 23.463 5.9386 23.2008 6.20082C22.9386 6.46304 22.6045 6.64162 22.2408 6.71397C21.8771 6.78631 21.5001 6.74918 21.1575 6.60727C20.8149 6.46535 20.522 6.22503 20.316 5.91669C20.11 5.60835 20 5.24584 20 4.875C20.0006 4.37789 20.1983 3.9013 20.5498 3.54979C20.9013 3.19829 21.3779 3.00056 21.875 3Z" fill="#8D0606" fill-opacity="0.65"/>
</g>
<defs>
<clipPath id="clip0_2_2562">
<rect width="32" height="36" fill="white"/>
</clipPath>
</defs>
</svg>
