<svg width="22" height="36" viewBox="0 0 22 36" fill="none" xmlns="http://www.w3.org/2000/svg">
<path d="M21.6132 23.9466C21.6132 25.2302 21.243 26.4603 20.5025 27.6369C19.762 28.7868 18.6666 29.7495 17.2165 30.5249C15.7972 31.3004 14.0848 31.7416 12.0793 31.8486V35.0977H9.58017V31.8486C6.77245 31.6347 4.48926 30.8592 2.73058 29.5222C0.971901 28.1584 0.0771354 26.4336 0.046281 24.3478H4.53554C4.65896 25.4709 5.13719 26.4469 5.97025 27.2759C6.83416 28.1049 8.03747 28.6264 9.58017 28.8403V18.8123C7.51295 18.3578 5.84683 17.8898 4.58182 17.4084C3.31681 16.9271 2.23691 16.1783 1.34215 15.1622C0.447383 14.1461 0 12.7823 0 11.0708C0 8.90478 0.863916 7.11312 2.59174 5.69585C4.35041 4.27857 6.67989 3.48971 9.58017 3.32927V0H12.0793V3.32927C14.702 3.51646 16.8154 4.25183 18.4198 5.5354C20.0243 6.79223 20.9499 8.43681 21.1967 10.4691H16.7074C16.5532 9.5332 16.0749 8.69085 15.2727 7.9421C14.4706 7.16661 13.4061 6.65853 12.0793 6.41786V16.2051C14.1157 16.6597 15.7664 17.1277 17.0314 17.609C18.3273 18.0636 19.4071 18.799 20.2711 19.8151C21.1658 20.8313 21.6132 22.2085 21.6132 23.9466ZM4.30413 10.8702C4.30413 12.1806 4.75152 13.1834 5.64628 13.8786C6.54104 14.5739 7.85235 15.1489 9.58017 15.6034V6.33764C7.97576 6.47134 6.69532 6.92594 5.73884 7.70143C4.78237 8.45018 4.30413 9.50645 4.30413 10.8702ZM12.0793 28.8804C13.7455 28.7199 15.0413 28.1985 15.9669 27.316C16.9235 26.4336 17.4017 25.3773 17.4017 24.1472C17.4017 22.8368 16.9388 21.8341 16.0132 21.1388C15.0876 20.4168 13.7763 19.8419 12.0793 19.414V28.8804Z" fill="#8D0606" fill-opacity="0.65"/>
</svg>
