<svg width="35" height="28" viewBox="0 0 35 28" fill="none" xmlns="http://www.w3.org/2000/svg">
<path d="M31.25 6.25H29.5064L29.7189 4.12238C29.7709 3.60111 29.7131 3.07473 29.5493 2.57716C29.3854 2.07959 29.1192 1.62186 28.7676 1.23348C28.4161 0.8451 27.9871 0.53468 27.5082 0.322231C27.0294 0.109781 26.5114 1.3e-05 25.9875 0H6.5125C5.98854 4.1e-05 5.4704 0.109864 4.99148 0.322391C4.51256 0.53492 4.08348 0.84543 3.73189 1.23392C3.38031 1.62241 3.11403 2.08026 2.95021 2.57795C2.78639 3.07564 2.72866 3.60214 2.78075 4.1235L4.7815 24.1224C4.81508 24.4222 4.88467 24.7168 4.98875 25H1.25C0.91848 25 0.60054 25.1317 0.366116 25.3661C0.131696 25.6005 0 25.9185 0 26.25C0 26.5815 0.131696 26.8995 0.366116 27.1339C0.60054 27.3683 0.91848 27.5 1.25 27.5H31.25C31.5815 27.5 31.8995 27.3683 32.1339 27.1339C32.3683 26.8995 32.5 26.5815 32.5 26.25C32.5 25.9185 32.3683 25.6005 32.1339 25.3661C31.8995 25.1317 31.5815 25 31.25 25H27.5115C27.6154 24.7172 27.6849 24.4229 27.7185 24.1235L28.381 17.5H31.25C32.2442 17.4989 33.1974 17.1035 33.9004 16.4004C34.6035 15.6974 34.9989 14.7442 35 13.75V10C34.9989 9.00577 34.6035 8.05258 33.9004 7.34956C33.1974 6.64653 32.2442 6.25109 31.25 6.25ZM8.5125 25C8.20243 25.001 7.90314 24.8862 7.67327 24.6782C7.4434 24.4701 7.29949 24.1836 7.26975 23.875L5.2685 3.87575C5.25109 3.70188 5.2703 3.5263 5.32488 3.36031C5.37946 3.19432 5.46821 3.0416 5.5854 2.912C5.7026 2.78239 5.84564 2.67877 6.00532 2.60781C6.165 2.53685 6.33777 2.50013 6.5125 2.5H25.9875C26.1622 2.50012 26.3349 2.53681 26.4945 2.60772C26.6541 2.67863 26.7972 2.78218 26.9143 2.9117C27.0315 3.04123 27.1203 3.19386 27.1749 3.35977C27.2295 3.52568 27.2488 3.70119 27.2315 3.875L25.2308 23.8762C25.2007 24.1848 25.0566 24.471 24.8267 24.6788C24.5967 24.8867 24.2975 25.0012 23.9875 25H8.5125ZM32.5 13.75C32.4998 14.0815 32.368 14.3993 32.1337 14.6337C31.8993 14.868 31.5815 14.9998 31.25 15H28.6311L29.2561 8.75H31.25C31.5815 8.7502 31.8993 8.88196 32.1337 9.11634C32.368 9.35071 32.4998 9.6685 32.5 10V13.75Z" fill="#8D0606" fill-opacity="0.65"/>
</svg>
