<svg width="32" height="31" viewBox="0 0 32 31" fill="none" xmlns="http://www.w3.org/2000/svg">
<g clip-path="url(#clip0_2_2551)">
<path d="M4 31.5H22.75C23.7442 31.4989 24.6974 31.1035 25.4004 30.4004C26.1035 29.6974 26.4989 28.7442 26.5 27.75V17.75C26.5 17.4185 26.3683 17.1005 26.1339 16.8661C25.8995 16.6317 25.5815 16.5 25.25 16.5C24.9185 16.5 24.6005 16.6317 24.3661 16.8661C24.1317 17.1005 24 17.4185 24 17.75V27.75C23.9997 28.0814 23.8679 28.3992 23.6336 28.6336C23.3992 28.8679 23.0814 28.9997 22.75 29H4C3.66857 28.9997 3.3508 28.8679 3.11645 28.6336C2.88209 28.3992 2.7503 28.0814 2.75 27.75V10.25C2.7503 9.91857 2.88209 9.6008 3.11645 9.36645C3.3508 9.13209 3.66857 9.0003 4 9H15.25C15.5815 9 15.8995 8.8683 16.1339 8.63388C16.3683 8.39946 16.5 8.08152 16.5 7.75C16.5 7.41848 16.3683 7.10054 16.1339 6.86612C15.8995 6.6317 15.5815 6.5 15.25 6.5H4C3.00577 6.50109 2.05258 6.89653 1.34956 7.59956C0.646531 8.30258 0.251092 9.25577 0.25 10.25V27.75C0.251092 28.7442 0.646531 29.6974 1.34956 30.4004C2.05258 31.1035 3.00577 31.4989 4 31.5Z" fill="#8D0606" fill-opacity="0.65"/>
<path d="M25.25 0.5C24.0138 0.5 22.8055 0.866556 21.7777 1.55331C20.7498 2.24007 19.9488 3.21619 19.4757 4.35823C19.0027 5.50027 18.8789 6.75693 19.1201 7.96931C19.3612 9.1817 19.9565 10.2953 20.8306 11.1694C21.7046 12.0435 22.8183 12.6388 24.0307 12.8799C25.243 13.1211 26.4997 12.9973 27.6417 12.5242C28.7838 12.0512 29.7599 11.2501 30.4466 10.2223C31.1334 9.19451 31.5 7.98613 31.5 6.75C31.498 5.093 30.8389 3.50442 29.6672 2.33274C28.4955 1.16106 26.907 0.501952 25.25 0.5ZM25.25 10.5C24.5083 10.5 23.7833 10.2801 23.1666 9.86801C22.5499 9.45596 22.0692 8.87029 21.7854 8.18506C21.5016 7.49984 21.4273 6.74584 21.572 6.01841C21.7167 5.29098 22.0739 4.6228 22.5983 4.09835C23.1228 3.5739 23.7909 3.21675 24.5184 3.07206C25.2458 2.92736 25.9998 3.00162 26.685 3.28545C27.3702 3.56928 27.9559 4.04993 28.368 4.66661C28.78 5.2833 29 6.00832 29 6.75C28.9989 7.74423 28.6034 8.69742 27.9004 9.40044C27.1974 10.1035 26.2442 10.4989 25.25 10.5Z" fill="#8D0606" fill-opacity="0.65"/>
<path d="M6.5 13H12.75C13.0815 13 13.3995 12.8683 13.6339 12.6339C13.8683 12.3995 14 12.0815 14 11.75C14 11.4185 13.8683 11.1005 13.6339 10.8661C13.3995 10.6317 13.0815 10.5 12.75 10.5H6.5C6.16848 10.5 5.85054 10.6317 5.61612 10.8661C5.3817 11.1005 5.25 11.4185 5.25 11.75C5.25 12.0815 5.3817 12.3995 5.61612 12.6339C5.85054 12.8683 6.16848 13 6.5 13Z" fill="#8D0606" fill-opacity="0.65"/>
<path d="M5.25 16.75C5.25 17.0815 5.3817 17.3995 5.61612 17.6339C5.85054 17.8683 6.16848 18 6.5 18H17.75C18.0815 18 18.3995 17.8683 18.6339 17.6339C18.8683 17.3995 19 17.0815 19 16.75C19 16.4185 18.8683 16.1005 18.6339 15.8661C18.3995 15.6317 18.0815 15.5 17.75 15.5H6.5C6.16848 15.5 5.85054 15.6317 5.61612 15.8661C5.3817 16.1005 5.25 16.4185 5.25 16.75Z" fill="#8D0606" fill-opacity="0.65"/>
</g>
<defs>
<clipPath id="clip0_2_2551">
<rect width="32" height="31" fill="white"/>
</clipPath>
</defs>
</svg>
